<svg xmlns="http://www.w3.org/2000/svg" width="533.333" height="533.333" preserveAspectRatio="xMidYMid meet" version="1.0" viewBox="0 0 400 400"><metadata>Created by potrace 1.11, written by Peter Selinger 2001-2013</metadata><g fill="#000" stroke="none"><path d="M0 2000 l0 -2000 2000 0 2000 0 0 2000 0 2000 -2000 0 -2000 0 0 -2000z m2957 1235 c140 -20 322 -65 451 -112 l104 -38 -6 -185 c-4 -102 -9 -229 -12 -282 l-6 -98 -124 0 c-68 0 -124 3 -124 6 0 21 -84 361 -92 371 -13 16 -149 50 -253 62 -344 41 -565 -47 -717 -285 -92 -143 -148 -385 -148 -632 0 -492 173 -774 530 -863 116 -30 295 -23 423 15 90 27 267 110 325 152 17 13 47 35 66 49 l34 26 67 -105 c37 -58 64 -110 60 -116 -18 -29 -196 -154 -284 -199 -197 -101 -353 -141 -551 -141 -435 0 -760 181 -927 515 -77 154 -112 316 -120 560 -9 270 18 448 96 651 92 239 273 439 500 554 194 98 447 132 708 95z m-1577 -115 l0 -100 -27 -7 c-16 -3 -77 -18 -138 -32 l-110 -26 -3 -900 -2 -900 107 -24 c58 -13 121 -28 140 -33 l33 -9 0 -99 0 -100 -460 0 -460 0 0 99 0 99 143 34 142 34 0 899 0 899 -120 28 c-66 15 -130 30 -143 33 -21 5 -22 10 -22 95 l0 90 38 1 c51 2 632 15 770 17 l112 2 0 -100z" transform="translate(0.000000,400.000000) scale(0.100000,-0.100000)"/></g></svg>